<?xml version="1.0" encoding="UTF-8"?>
<!DOCTYPE svg PUBLIC "-//W3C//DTD SVG 1.1//EN" "http://www.w3.org/Graphics/SVG/1.1/DTD/svg11.dtd">
<svg version="1.1" xmlns="http://www.w3.org/2000/svg" xmlns:xlink="http://www.w3.org/1999/xlink" x="0" y="0" width="43.855" height="43.855" viewBox="0, 0, 438.549, 438.549">
  <defs>
    <linearGradient id="Gradient_1" gradientUnits="userSpaceOnUse" x1="50.275" y1="216" x2="381.275" y2="216">
      <stop offset="0" stop-color="#ABABF6"/>
      <stop offset="0.243" stop-color="#282CAB"/>
      <stop offset="0.975" stop-color="#00059B"/>
    </linearGradient>
  </defs>
  <g id="Layer_1">
    <path d="M298.525,209.687 L298.525,231.781 C298.525,236.989 293.87,241.25 288.181,241.25 L143.368,241.25 C137.679,241.25 133.025,236.989 133.025,231.781 L133.025,209.687 C133.025,204.48 137.679,200.219 143.368,200.219 L288.181,200.219 C293.87,200.219 298.525,204.48 298.525,209.687 z M288.181,266.5 L143.368,266.5 C137.679,266.5 133.025,270.761 133.025,275.969 L133.025,298.062 C133.025,303.27 137.679,307.531 143.368,307.531 L288.181,307.531 C293.87,307.531 298.525,303.27 298.525,298.062 L298.525,275.969 C298.525,270.761 293.87,266.5 288.181,266.5 z M381.275,118.077 L381.275,380.125 C381.275,401.035 362.742,418 339.9,418 L91.65,418 C68.807,418 50.275,401.035 50.275,380.125 L50.275,51.875 C50.275,30.965 68.807,14 91.65,14 L267.579,14 C278.527,14 289.043,18.024 296.801,25.126 L369.121,91.328 C376.878,98.351 381.275,108.056 381.275,118.077 z M270.941,54.952 L270.941,115 L336.538,115 L270.941,54.952 z M339.9,380.125 L339.9,152.875 L250.254,152.875 C238.789,152.875 229.566,144.432 229.566,133.938 L229.566,51.875 L91.65,51.875 L91.65,380.125 L339.9,380.125 z" fill="url(#Gradient_1)" id="file-alt-regular"/>
  </g>
</svg>
